<?xml version="1.0" standalone="no"?>
<!DOCTYPE svg PUBLIC "-//W3C//DTD SVG 20010904//EN"
 "http://www.w3.org/TR/2001/REC-SVG-20010904/DTD/svg10.dtd">
<svg version="1.0" xmlns="http://www.w3.org/2000/svg"
 width="640.000000pt" height="640.000000pt" viewBox="0 0 640.000000 640.000000"
 preserveAspectRatio="xMidYMid meet">
<metadata>
Created by potrace 1.16, written by Peter Selinger 2001-2019
</metadata>
<g transform="translate(0.000000,640.000000) scale(0.100000,-0.100000)"
fill="#000000" stroke="none">
<path d="M2062 5959 c-173 -29 -332 -179 -371 -349 -7 -29 -11 -391 -11 -1034
l0 -989 -52 6 c-112 14 -226 98 -276 205 -21 44 -27 76 -30 142 -5 124 19 182
115 279 40 41 76 84 79 97 14 56 -29 104 -94 104 -42 0 -49 -4 -122 -77 -79
-80 -108 -125 -141 -222 -110 -319 120 -673 461 -710 l55 -6 3 -272 2 -273
-39 0 c-45 0 -41 -7 -66 115 -28 139 -28 138 -145 176 -35 11 -99 38 -142 60
-43 21 -89 39 -103 39 -14 0 -67 -27 -118 -60 -52 -33 -98 -60 -103 -60 -5 0
-33 24 -62 53 l-52 53 60 94 c34 52 63 105 67 118 4 15 -9 53 -41 117 -25 51
-53 121 -63 155 -22 80 -49 103 -150 125 -154 33 -138 20 -141 108 l-3 76 38
10 c21 6 72 17 113 26 103 22 115 32 141 117 12 40 41 113 66 162 33 66 43 95
38 115 -4 14 -34 68 -67 120 l-60 94 53 53 c29 30 57 54 61 54 4 0 49 -27 101
-60 109 -70 133 -73 210 -31 28 16 92 43 140 60 113 40 122 45 135 78 22 53
72 314 66 339 -9 34 -51 64 -91 64 -52 0 -77 -32 -97 -126 -38 -177 -29 -162
-136 -205 -52 -21 -98 -39 -101 -39 -3 0 -51 29 -107 65 -149 96 -144 97 -309
-68 -164 -164 -162 -155 -63 -308 l70 -108 -34 -73 c-18 -40 -38 -85 -43 -99
-10 -22 -22 -28 -119 -48 -119 -26 -158 -41 -174 -70 -6 -12 -10 -96 -10 -201
l0 -182 27 -27 c22 -21 47 -31 113 -44 150 -30 157 -33 171 -75 7 -20 25 -64
40 -97 15 -33 25 -64 21 -69 -3 -6 -34 -55 -69 -110 -41 -65 -63 -110 -63
-129 0 -25 22 -52 132 -163 85 -86 141 -135 159 -139 32 -7 42 -3 167 78 l93
59 77 -35 c42 -19 87 -38 99 -41 22 -7 23 -8 64 -198 19 -88 40 -102 155 -106
l94 -4 0 -892 c0 -969 -1 -945 56 -1058 54 -106 180 -201 302 -227 37 -8 365
-11 1110 -11 1153 0 1116 -2 1224 57 62 34 148 125 183 192 55 109 55 103 55
1159 0 922 1 973 18 969 9 -3 35 -8 57 -12 59 -10 152 -63 191 -109 19 -22 47
-65 62 -96 24 -48 27 -67 27 -150 0 -84 -3 -102 -28 -153 -18 -35 -56 -85 -98
-127 -81 -80 -89 -112 -40 -161 52 -51 109 -34 202 62 164 168 199 439 83 646
-79 142 -235 250 -396 275 l-78 13 0 272 0 273 35 0 c42 0 43 -3 70 -134 12
-55 27 -99 40 -114 13 -15 53 -34 105 -51 47 -16 116 -45 155 -65 84 -44 89
-44 205 28 47 29 90 56 96 60 13 6 114 -88 114 -106 0 -6 -27 -53 -60 -105
-33 -51 -60 -104 -60 -118 0 -14 18 -61 39 -104 22 -43 50 -109 62 -147 31
-100 42 -108 175 -139 l114 -27 0 -79 c0 -43 -2 -79 -5 -79 -22 0 -206 -46
-227 -56 -21 -11 -32 -31 -53 -95 -14 -45 -44 -117 -66 -160 -21 -43 -39 -89
-39 -102 0 -12 27 -65 60 -117 33 -52 60 -100 60 -105 0 -6 -24 -34 -53 -63
l-52 -51 -95 60 c-52 33 -105 62 -117 65 -15 4 -59 -11 -130 -44 -60 -28 -129
-56 -155 -62 -77 -19 -91 -44 -127 -215 -17 -82 -31 -160 -31 -173 0 -34 52
-82 88 -82 61 0 88 40 112 165 24 126 27 133 68 146 20 6 63 25 96 40 l59 29
110 -70 c73 -46 121 -70 141 -70 24 0 52 22 162 132 86 84 135 141 139 159 7
32 -4 56 -82 175 l-55 86 30 66 c17 37 34 80 38 95 8 35 21 40 148 67 117 24
131 31 152 71 12 25 15 61 12 204 -4 223 7 209 -200 255 -80 19 -99 26 -104
44 -4 11 -22 56 -41 98 l-35 77 72 113 c59 94 70 118 66 143 -5 21 -44 68
-139 163 -112 111 -138 132 -164 132 -20 0 -66 -23 -138 -68 l-107 -69 -82 34
c-44 19 -90 38 -101 43 -17 6 -24 26 -39 106 -33 180 -47 194 -178 194 l-87 0
-3 913 c-3 878 -4 914 -23 967 -47 132 -164 248 -293 292 l-67 23 -1055 1
c-580 1 -1079 -2 -1108 -7z m2183 -196 c66 -22 137 -93 159 -159 15 -46 16
-237 14 -2399 l-3 -2350 -22 -41 c-32 -60 -106 -122 -168 -139 -45 -13 -192
-15 -1106 -13 l-1054 3 -53 30 c-59 32 -91 66 -125 129 l-22 41 0 2355 c0
2234 1 2357 18 2393 34 73 104 136 177 158 14 4 500 8 1081 8 960 1 1060 -1
1104 -16z"/>
<path d="M2809 5571 c-38 -38 -39 -87 -4 -125 l24 -26 311 0 312 0 30 30 c26
27 30 36 25 68 -4 22 -17 46 -32 60 -26 22 -29 22 -331 22 l-306 0 -29 -29z"/>
<path d="M2645 3669 c-31 -17 -385 -371 -401 -401 -32 -61 -27 -69 184 -281
108 -110 211 -205 229 -213 73 -31 147 52 109 122 -8 16 -80 94 -160 174 -80
80 -146 149 -146 155 0 6 69 80 154 164 85 85 158 166 161 179 18 70 -66 135
-130 101z"/>
<path d="M3192 3670 c-12 -5 -29 -24 -37 -42 -27 -61 -197 -768 -191 -793 8
-31 40 -62 71 -67 30 -6 81 15 94 40 5 10 53 190 105 400 105 417 105 426 45
457 -32 17 -54 18 -87 5z"/>
<path d="M3539 3651 c-31 -31 -37 -67 -18 -104 6 -12 79 -91 162 -174 l151
-153 -162 -163 c-170 -171 -176 -180 -152 -242 6 -15 24 -32 45 -41 30 -12 39
-12 68 0 17 8 119 101 225 208 166 167 193 199 199 232 l6 38 -214 214 c-193
192 -218 214 -248 214 -23 0 -41 -9 -62 -29z"/>
</g>
</svg>
